<?xml version='1.0' encoding='utf-8'?>
<!DOCTYPE svg PUBLIC '-//W3C//DTD SVG 1.1//EN' 'http://www.w3.org/Graphics/SVG/1.1/DTD/svg11.dtd'>
<svg version="1.1" xmlns="http://www.w3.org/2000/svg" viewBox="0 0 512 512" xmlns:xlink="http://www.w3.org/1999/xlink" enable-background="new 0 0 512 512">
  <g>
    <g>
      <path d="M271.8,18.1c-7.8-9.4-23.8-9.4-31.6,0C223,39,71.9,225.4,71.9,319.2C71.9,419.4,154.5,501,256,501    c101.5,0,184.1-81.6,184.1-181.8C440.1,225.4,289,39,271.8,18.1z M256,460.1c-79,0-143.2-63.2-143.2-141    C112.8,259,205,128.8,256,63.7c51,65.1,143.2,195.3,143.2,255.4C399.2,396.9,335,460.1,256,460.1z"/>
      <path d="m213.4,252.5c4.5-10.3-0.3-22.4-10.6-26.8-10.4-4.5-22.4,0.3-26.9,10.6-4.6,10.7-44.1,106 3.8,156.6 5.5,5.8 18,11.1 28.9,1 8.3-7.7 8.7-20.6 1-28.9-25-26.7-5.1-91.8 3.8-112.5z"/>
    </g>
  </g>
</svg>
