<?xml version="1.0" encoding="utf-8"?>
<!-- Uploaded to SVGRepo https://www.svgrepo.com -->
<svg version="1.2" baseProfile="tiny" id="Layer_1" xmlns="http://www.w3.org/2000/svg" xmlns:xlink="http://www.w3.org/1999/xlink"
	 x="0px" y="0px" viewBox="0 0 256 256" xml:space="preserve">
<path d="M210.4,116.8c-0.4,0-0.8,0.1-1.2,0.1c0.2-1.9,0.3-3.8,0.3-5.7c0-32.6-26.4-59-59-59c-29.8,0-54.4,22.1-58.3,50.8
	c-4-1.3-8.1-2.1-12.4-2.1c-22.4,0-40.6,18.2-40.6,40.6c0,0.2,0.1,0.4,0.1,0.5c-1.8-0.3-3.7-0.5-5.6-0.5c-16,0-28.8,12.9-28.8,28.7
	s12.8,28.7,28.7,28.7c0,0,175.5-0.9,176.7-0.9c22.4,0,40.6-18.2,40.6-40.6C251,135,232.8,116.8,210.4,116.8z"/>
</svg>
